<svg xmlns="http://www.w3.org/2000/svg" height="24px" viewBox="0 -960 960 960" width="24px" fill="#555555"><path d="M203.93-81.87q-80.63 0-137.28-56.72Q10-195.31 10-275.79q0-80.47 56.69-137.37 56.68-56.9 137.11-56.9 81.09 0 137.74 56.6 56.66 56.61 56.66 137.45 0 80.84-56.83 137.49-56.82 56.65-137.44 56.65Zm-.07-83.61q45.94 0 78.34-32.16 32.39-32.15 32.39-78.09 0-45.94-32.16-78.33-32.16-32.4-78.1-32.4T126-354.3q-32.39 32.16-32.39 78.1t32.16 78.33q32.15 32.39 78.09 32.39Zm234.34-27.89v-198.15L311.87-502.56q-12.22-10.87-18.45-25.34-6.22-14.46-6.22-30.42t6.23-30.49q6.24-14.52 17.96-25.73l114.38-113.38q11.83-11.75 27.18-17.98 15.34-6.23 31.77-6.23 16.71 0 32.67 5.74t27.94 17.72l76.19 75.19q27.52 26.52 61.18 43.16 33.65 16.65 71.71 16.65v83.61q-55.34 0-105.27-22.37-49.92-22.37-89.4-61.35l-30.83-30.33-91.67 91.68 84.56 90.08v248.98h-83.6Zm182.84-543.2q-32.95 0-56.17-23.21-23.22-23.22-23.22-56.18 0-32.95 23.22-56.17t56.17-23.22q32.96 0 56.18 23.22 23.21 23.22 23.21 56.17 0 32.96-23.21 56.18-23.22 23.21-56.18 23.21ZM754.7-81.87q-80.02 0-136.46-56.72-56.44-56.72-56.44-137.2 0-80.47 56.4-137.37 56.39-56.9 136.41-56.9 81.05 0 138.22 56.6Q950-356.85 950-275.76q0 81.09-57.13 137.49-57.12 56.4-138.17 56.4Zm.97-83.61q45.94 0 78.33-32.16 32.39-32.15 32.39-78.09 0-45.94-32.16-78.33-32.15-32.4-78.09-32.4-45.94 0-78.34 32.16-32.39 32.16-32.39 78.1t32.16 78.33q32.16 32.39 78.1 32.39Z"/></svg>